<svg
  width="100%"
  height="100%"
  viewBox="0 0 1024 1024"
  fill="none"
  xmlns="http://www.w3.org/2000/svg"
>
  <rect width="1024" height="1024" fill="#000" rx="266.24"/>
  <g fill="#fff">
    <path d="M607.38 612.911a17.59 17.59 0 0 1 14.986 2.833l151.971 112.058c11.86 8.745 8.348 27.324-5.885 31.137L444.54 845.72c-11.168 2.992-22.135-5.423-22.135-16.985V675.962a17.58 17.58 0 0 1 13.034-16.985z"/>
    <path d="M365.139 677.811c10.981-2.918 21.756 5.186 22.09 16.456l.008.539v110.133c0 14.424-16.41 22.713-28.019 14.153L249.663 738.31c-11.86-8.745-8.349-27.324 5.885-31.138z"/>
    <path d="M803.865 338.724c11.168-2.992 22.135 5.423 22.135 16.984v331.679c0 14.424-16.41 22.713-28.02 14.152L643.911 587.934a17.58 17.58 0 0 1-7.148-14.152V396.985a17.58 17.58 0 0 1 13.033-16.984l18.122-4.856.08-.02 109.555-29.352-.001-.001z"/>
    <path d="M198 336.613c0-14.424 16.41-22.713 28.02-14.153l2.753 2.03.019.015 151.311 111.571a17.58 17.58 0 0 1 7.134 14.141v176.796a17.585 17.585 0 0 1-13.033 16.986l-18.133 4.857-.069.019-135.867 36.401C208.967 688.268 198 679.853 198 668.291z"/>
    <path d="M512 431.615c44.395 0 80.384 35.989 80.384 80.384S556.395 592.383 512 592.383s-80.384-35.989-80.384-80.384 35.989-80.384 80.384-80.384"/>
    <path d="M579.46 178.28c11.168-2.992 22.134 5.423 22.135 16.985v152.773a17.585 17.585 0 0 1-13.034 16.986L416.62 411.089a17.59 17.59 0 0 1-14.986-2.832L249.663 296.199c-11.86-8.745-8.348-27.324 5.885-31.138z"/>
    <path d="M636.763 219.06c0-14.424 16.41-22.712 28.019-14.152l109.555 80.782c11.859 8.744 8.349 27.32-5.881 31.135l-109.6 29.364c-10.979 2.914-21.751-5.187-22.085-16.455l-.008-.54z"/>
  </g>
</svg>