<svg
  width="100%"
  height="100%"
  viewBox="0 0 1024 1024"
  fill="none"
  xmlns="http://www.w3.org/2000/svg"
>
  <rect width="1024" height="1024" fill="#fff" rx="266.24"/>
  <g fill="#000">
    <path d="M612.465 616.988a23.2 23.2 0 0 1 19.767 3.736l161.912 119.387c15.644 11.536 11.013 36.044-7.762 41.074l-345.101 92.457c-14.731 3.947-29.197-7.154-29.197-22.404V688.471a23.195 23.195 0 0 1 17.192-22.404z"/>
    <path d="M354.34 686.143c14.501-3.885 28.745 6.811 29.186 21.693l.011.712v117.337c0 19.026-21.646 29.96-36.96 18.668l-116.722-86.065c-15.522-11.446-11.083-35.661 7.326-40.952l.437-.121z"/>
    <path d="M821.803 324.864c14.731-3.946 29.197 7.154 29.197 22.405v353.375c0 19.026-21.647 29.959-36.961 18.668L649.892 598.275a23.2 23.2 0 0 1-9.429-18.668V391.246a23.194 23.194 0 0 1 17.192-22.404l19.197-5.144.196-.051 116.721-31.271.099-.028z"/>
    <path d="M173 323.356c0-19.026 21.647-29.96 36.961-18.669l2.932 2.163.021.015 161.209 118.87a23.2 23.2 0 0 1 9.414 18.657v188.36a23.196 23.196 0 0 1-17.192 22.405l-164.148 43.978C187.466 703.081 173 691.981 173 676.73z"/>
    <path d="M512 415.652c53.211 0 96.347 43.136 96.347 96.347S565.211 608.346 512 608.346s-96.347-43.136-96.347-96.347 43.136-96.347 96.347-96.347"/>
    <path d="M582.719 150.358c14.731-3.947 29.197 7.153 29.197 22.404v162.767a23.195 23.195 0 0 1-17.192 22.404l-183.189 49.08a23.2 23.2 0 0 1-19.768-3.737L229.855 283.889c-15.644-11.536-11.011-36.043 7.763-41.073z"/>
    <path d="M640.463 198.114c0-19.026 21.647-29.96 36.961-18.668l116.721 86.066c15.636 11.53 11.016 36.019-7.736 41.065l-116.84 31.302c-14.47 3.816-28.655-6.864-29.095-21.715l-.011-.712z"/>
  </g>
</svg>