<svg
  width="100%"
  height="100%"
  viewBox="0 0 678 725"
  fill="#000"
  xmlns="http://www.w3.org/2000/svg"
>
  <path d="M439.465 467.433a23.2 23.2 0 0 1 19.767 3.736l161.912 119.388c15.644 11.535 11.013 36.043-7.762 41.073l-345.101 92.458c-14.731 3.946-29.197-7.154-29.197-22.405V538.917a23.195 23.195 0 0 1 17.192-22.405z"/>
  <path d="M181.34 536.589c14.501-3.885 28.745 6.81 29.186 21.693l.011.711V676.33c0 19.027-21.646 29.96-36.96 18.668L56.855 608.933c-15.521-11.445-11.083-35.661 7.326-40.952l.437-.121z"/>
  <path d="M648.803 175.31c14.731-3.947 29.197 7.154 29.197 22.404v353.375c0 19.026-21.647 29.959-36.961 18.668L476.892 448.721a23.2 23.2 0 0 1-9.429-18.668V241.691a23.195 23.195 0 0 1 17.192-22.404l19.197-5.144.196-.05 116.721-31.272.099-.028z"/>
  <path d="M0 173.802c0-19.027 21.647-29.961 36.96-18.669l2.933 2.162.02.016 161.21 118.869a23.2 23.2 0 0 1 9.414 18.657v188.36a23.195 23.195 0 0 1-17.192 22.405L29.197 549.58C14.467 553.527 0 542.426 0 527.175z"/>
  <path d="M339 266.097c53.211 0 96.347 43.136 96.347 96.347 0 53.212-43.136 96.348-96.347 96.348s-96.347-43.136-96.347-96.348 43.136-96.347 96.347-96.347"/>
  <path d="M409.719.803c14.731-3.947 29.197 7.154 29.197 22.405v162.766a23.196 23.196 0 0 1-17.192 22.405l-183.189 49.079a23.2 23.2 0 0 1-19.768-3.736L56.855 134.334c-15.644-11.536-11.011-36.043 7.763-41.073z"/>
  <path d="M467.463 48.56c0-19.027 21.647-29.96 36.961-18.669l116.721 86.066c15.636 11.53 11.016 36.019-7.736 41.065l-116.84 31.302c-14.47 3.817-28.655-6.864-29.095-21.715l-.011-.712z"/>
</svg>