<svg
  width="100%"
  height="100%"
  viewBox="0 0 628 669"
  fill="#fff"
  xmlns="http://www.w3.org/2000/svg"
 >
  <path d="M409.38 435.24a17.59 17.59 0 0 1 14.986 2.833l151.971 112.058c11.86 8.745 8.348 27.324-5.885 31.137L246.54 668.049c-11.168 2.992-22.135-5.423-22.135-16.984V498.291a17.584 17.584 0 0 1 13.034-16.985z"/>
  <path d="M167.139 500.14c10.981-2.918 21.756 5.186 22.09 16.456l.008.539v110.133c0 14.424-16.41 22.714-28.019 14.153L51.663 560.639c-11.86-8.745-8.349-27.324 5.885-31.137z"/>
  <path d="M605.865 161.053c11.168-2.992 22.135 5.423 22.135 16.984v331.679c0 14.424-16.41 22.713-28.02 14.152L445.911 410.263a17.58 17.58 0 0 1-7.148-14.152V219.315a17.585 17.585 0 0 1 13.033-16.985l18.122-4.856.08-.02 109.555-29.352-.001-.001z"/>
  <path d="M0 158.942c0-14.424 16.41-22.713 28.02-14.153l2.753 2.03.019.015 151.311 111.571a17.58 17.58 0 0 1 7.134 14.142v176.795a17.585 17.585 0 0 1-13.033 16.986l-18.133 4.857-.069.019-135.867 36.401C10.967 510.597 0 502.182 0 490.62z"/>
  <path d="M314 253.944c44.395 0 80.384 35.99 80.384 80.384 0 44.395-35.989 80.384-80.384 80.384s-80.384-35.989-80.384-80.384c0-44.394 35.989-80.384 80.384-80.384"/>
  <path d="M381.46.609c11.168-2.992 22.134 5.424 22.135 16.985v152.773a17.585 17.585 0 0 1-13.034 16.986L218.62 233.418a17.59 17.59 0 0 1-14.986-2.832L51.663 118.528c-11.86-8.745-8.348-27.324 5.885-31.138z"/>
  <path d="M438.763 41.39c0-14.424 16.41-22.713 28.019-14.153l109.555 80.782c11.859 8.744 8.349 27.32-5.881 31.136l-109.6 29.363c-10.979 2.914-21.751-5.187-22.085-16.455l-.008-.54z"/>
 </svg>