<svg
  viewBox="0 0 744 794"
  fill="#fff"
  xmlns="http://www.w3.org/2000/svg"
 >
  <path d="M485.756 521.334a20 20 0 0 1 17.045 3.222l177.375 130.79c13.489 9.946 9.495 31.077-6.694 35.415L293.176 792.65C280.473 796.053 268 786.482 268 773.332V595.02a20 20 0 0 1 14.824-19.318z"/>
  <path d="M194.867 599.266c12.489-3.317 24.744 5.9 25.124 18.717l.009.615V743.56l-.014.764c-.568 15.932-18.857 24.917-31.855 15.333L63.824 667.998c-13.489-9.947-9.495-31.078 6.694-35.415z"/>
  <path d="M718.824 194.306c12.702-3.404 25.176 6.169 25.176 19.319v389.546c0 16.405-18.665 25.833-31.869 16.097l-180-132.725A20 20 0 0 1 524 470.445V261.849a20 20 0 0 1 14.824-19.319l22.671-6.074.103-.026z"/>
  <path d="M0 190.172c0-16.406 18.665-25.833 31.87-16.097l179.999 132.726A20 20 0 0 1 220 322.897v208.597c0 9.052-6.08 16.976-14.824 19.318l-180 48.225C12.473 602.44 0 592.869 0 579.719z"/>
  <path d="M450.824.692C463.527-2.71 476 6.862 476 20.012v178.311c0 9.052-6.08 16.976-14.824 19.318l-202.932 54.37a20 20 0 0 1-17.045-3.222l-.789-.582-.054-.04L63.824 137.999c-13.49-9.947-9.495-31.078 6.694-35.415z"/>
  <path d="M524 49.783c0-16.406 18.665-25.833 31.869-16.097l124.307 91.66c13.278 9.791 9.616 30.42-5.944 35.2l-.75.215-124.403 33.328C536.41 197.418 524 187.863 524 174.746z"/>
  <path d="M468 396.671c0 53.019-42.981 96-96 96s-96-42.981-96-96 42.981-96 96-96 96 42.981 96 96"/>
 </svg>