<svg xmlns="http://www.w3.org/2000/svg" width="100%" height="100%" viewBox="0 0 760 816" fill="none"><path fill="#fff" d="M497.38 525.216a16 16 0 0 1 13.558 2.52l.724.526.088.064 200.68 146.088c10.851 7.925 7.69 24.895-5.296 28.375L288.142 815.06C277.98 817.783 268 810.125 268 799.605V598.956c0-7.241 4.865-13.58 11.859-15.455zM215.859 600.651c10.003-2.68 19.83 4.697 20.134 14.964l.007.491v162.325l-.011.608c-.452 12.703-14.996 19.904-25.405 12.327L47.592 672.715c-10.874-7.916-7.721-24.901 5.266-28.389zM739.858 190.649C750.02 187.926 760 195.584 760 206.104v431.921c0 13.079-14.841 20.633-25.416 12.935L530.58 502.452A16 16 0 0 1 524 489.52V260.767a16 16 0 0 1 11.858-15.455zM0 177.589c0-13.079 14.842-20.633 25.417-12.935l3.296 2.399.045.033L229.459 313.19A16 16 0 0 1 236 326.094v228.754a16 16 0 0 1-11.858 15.454l-16.527 4.428-.039.01-187.434 50.225C9.98 627.688 0 620.03 0 609.51zM471.858.554C482.02-2.169 492 5.489 492 16.009v200.649a16 16 0 0 1-11.858 15.455L262.62 290.399a16 16 0 0 1-13.558-2.52L47.567 141.198c-10.847-7.926-7.686-24.893 5.3-28.373zM524 37.182c0-13.08 14.841-20.633 25.416-12.936L712.408 142.9c10.877 7.918 7.72 24.907-5.275 28.389l-162.992 43.675c-10.003 2.68-19.83-4.698-20.134-14.964l-.007-.491z"/></svg>