<svg 
  viewBox="0 0 760 812"
  fill="#000"
  xmlns="http://www.w3.org/2000/svg"
>
  <path d="M491.686 523.61a28 28 0 0 1 23.863 4.511L692.924 658.91c18.884 13.925 13.293 43.509-9.371 49.582L303.246 810.381C285.463 815.146 268 801.746 268 783.336V605.024c0-12.673 8.513-23.766 20.754-27.046z"/>
  <path d="M200.754 601.555c17.505-4.69 34.7 8.221 35.233 26.187l.013.859v124.963l-.005.536c-.403 22.636-26.27 35.523-44.612 21.999L67.076 684.441c-18.885-13.925-13.293-43.509 9.371-49.582z"/>
  <path d="M724.754 196.582c17.783-4.765 35.246 8.636 35.246 27.046v389.546c0 22.968-26.131 36.167-44.617 22.537l-180-132.726A28 28 0 0 1 524 480.449V271.852a28 28 0 0 1 20.754-27.046l22.674-6.075.099-.025 124.307-33.304.059-.017z"/>
  <path d="M0 198.175c0-22.968 26.131-36.166 44.617-22.535l180.027 132.745A28 28 0 0 1 236 330.901v208.597c0 12.673-8.513 23.766-20.754 27.046l-180 48.224C17.463 619.532 0 606.132 0 587.722z"/>
  <path d="M380 297.674c59.647 0 108 48.354 108 108s-48.353 108-108 108-108-48.353-108-108 48.353-108 108-108"/>
  <path d="M456.754.97C474.537-3.796 492 9.604 492 28.014v178.312c0 12.673-8.513 23.766-20.754 27.046l-202.932 54.369a28 28 0 0 1-23.863-4.511L67.035 152.411C48.2 138.473 53.8 108.928 76.447 102.86z"/>
  <path d="M524 57.787c0-22.969 26.131-36.166 44.617-22.535l124.307 91.658c18.867 13.912 13.303 43.454-9.309 49.564l-124.421 33.334C541.429 214.533 524 201.142 524 182.75z"/>
</svg>